<svg width="26" height="26" viewBox="0 0 26 26" fill="none" xmlns="http://www.w3.org/2000/svg">
<path d="M13 0C10.4288 0 7.91543 0.762437 5.77759 2.19089C3.63975 3.61935 1.97351 5.64967 0.989572 8.02511C0.0056327 10.4006 -0.251811 13.0144 0.249797 15.5362C0.751405 18.0579 1.98953 20.3743 3.80762 22.1924C5.6257 24.0105 7.94208 25.2486 10.4638 25.7502C12.9856 26.2518 15.5994 25.9944 17.9749 25.0104C20.3503 24.0265 22.3806 22.3602 23.8091 20.2224C25.2376 18.0846 26 15.5712 26 13C25.9964 9.5533 24.6256 6.24881 22.1884 3.81163C19.7512 1.37445 16.4467 0.00363977 13 0ZM13 24C10.8244 24 8.69767 23.3549 6.88873 22.1462C5.07979 20.9375 3.66989 19.2195 2.83733 17.2095C2.00477 15.1995 1.78693 12.9878 2.21137 10.854C2.6358 8.72021 3.68345 6.7602 5.22183 5.22182C6.76021 3.68345 8.72022 2.6358 10.854 2.21136C12.9878 1.78692 15.1995 2.00476 17.2095 2.83732C19.2195 3.66989 20.9375 5.07979 22.1462 6.88873C23.3549 8.69767 24 10.8244 24 13C23.9967 15.9164 22.8367 18.7123 20.7745 20.7745C18.7123 22.8367 15.9164 23.9967 13 24ZM9 13C9 13.8395 9.26415 14.6578 9.75504 15.3388C10.2459 16.0199 10.9386 16.5292 11.7351 16.7947C12.5315 17.0602 13.3913 17.0684 14.1927 16.8181C14.994 16.5677 15.6963 16.0716 16.2 15.4C16.3593 15.1878 16.5964 15.0476 16.859 15.0102C17.1217 14.9728 17.3885 15.0413 17.6006 15.2006C17.8128 15.3599 17.953 15.597 17.9904 15.8596C18.0278 16.1223 17.9593 16.3891 17.8 16.6012C17.0442 17.6084 15.9908 18.3522 14.7888 18.7274C13.5869 19.1026 12.2973 19.0902 11.1028 18.6918C9.90834 18.2935 8.86944 17.5295 8.13326 16.5079C7.39708 15.4864 7.00094 14.2592 7.00094 13C7.00094 11.7408 7.39708 10.5136 8.13326 9.49205C8.86944 8.47052 9.90834 7.70648 11.1028 7.30815C12.2973 6.90981 13.5869 6.89736 14.7888 7.27257C15.9908 7.64777 17.0442 8.39162 17.8 9.39875C17.8789 9.50381 17.9363 9.62337 17.969 9.75062C18.0016 9.87786 18.0089 10.0103 17.9904 10.1404C17.9719 10.2704 17.9279 10.3956 17.8611 10.5086C17.7942 10.6217 17.7057 10.7205 17.6006 10.7994C17.4956 10.8782 17.376 10.9357 17.2488 10.9683C17.1215 11.001 16.9891 11.0083 16.859 10.9898C16.729 10.9712 16.6038 10.9273 16.4907 10.8604C16.3777 10.7935 16.2789 10.7051 16.2 10.6C15.6963 9.92837 14.994 9.43226 14.1927 9.18194C13.3913 8.93162 12.5315 8.93978 11.7351 9.20527C10.9386 9.47075 10.2459 9.98009 9.75504 10.6612C9.26415 11.3422 9 12.1605 9 13Z" fill="white"/>
</svg>
