<svg width="661" height="370" viewBox="0 0 661 370" fill="none" xmlns="http://www.w3.org/2000/svg">
<path d="M404.09 173.519C404.09 174.883 403.545 176.028 402.453 176.956C401.417 177.829 400.135 178.265 398.607 178.265H363.987C363.278 178.265 362.705 178.402 362.268 178.675C361.832 178.947 361.504 179.248 361.286 179.575C361.068 179.848 360.959 180.093 360.959 180.312C360.959 180.584 361.068 180.884 361.286 181.212C361.504 181.485 361.832 181.757 362.268 182.03C362.705 182.248 363.278 182.385 363.987 182.439H390.75C394.187 182.494 397.024 183.176 399.262 184.486C401.499 185.74 403.081 187.241 404.008 188.987C404.991 190.678 405.482 192.397 405.482 194.143C405.482 195.834 404.991 197.553 404.008 199.299C403.026 200.991 401.417 202.491 399.18 203.801C396.997 205.055 394.187 205.683 390.75 205.683C390.15 205.738 389.713 205.765 389.44 205.765H357.685C356.157 205.765 354.848 205.328 353.757 204.455C352.72 203.528 352.202 202.409 352.202 201.1C352.202 199.736 352.747 198.59 353.838 197.662C354.875 196.789 356.157 196.353 357.685 196.353H391.405C392.223 196.407 392.878 196.298 393.369 196.025C393.914 195.753 394.324 195.453 394.596 195.125C394.869 194.798 395.006 194.47 395.006 194.143C395.006 193.979 394.869 193.707 394.596 193.325C394.324 192.888 393.914 192.561 393.369 192.342C392.878 192.07 392.223 191.906 391.405 191.851H364.56C361.395 191.797 358.776 191.142 356.703 189.887C354.63 188.578 353.156 187.077 352.283 185.386C351.41 183.694 350.974 182.003 350.974 180.312C350.974 178.62 351.41 176.956 352.283 175.319C353.211 173.628 354.684 172.182 356.703 170.981C358.776 169.726 361.395 169.044 364.56 168.935C365.106 168.881 365.515 168.853 365.788 168.853H398.607C400.135 168.853 401.417 169.317 402.453 170.245C403.545 171.118 404.09 172.209 404.09 173.519ZM432.326 156.331C433.854 156.331 435.163 156.85 436.255 157.886C437.346 158.869 437.919 160.123 437.973 161.651V168.772H465.8C467.328 168.772 468.637 169.29 469.729 170.327C470.765 171.418 471.284 172.727 471.284 174.255C471.284 175.783 470.738 177.092 469.647 178.184C468.61 179.22 467.328 179.739 465.8 179.739H437.973V181.375C437.919 183.613 438.055 185.686 438.383 187.596C438.765 189.451 439.638 191.115 441.002 192.588C442.366 194.061 444.084 194.852 446.158 194.961H466.128C467.655 195.016 468.91 195.589 469.892 196.68C470.929 197.771 471.447 199.081 471.447 200.609C471.393 202.082 470.847 203.337 469.81 204.373C468.828 205.356 467.601 205.874 466.128 205.928H443.375C439.556 205.71 436.391 204.428 433.881 202.082C431.426 199.681 429.653 196.762 428.561 193.325C427.525 189.887 426.979 186.232 426.925 182.358V179.739H417.513C415.985 179.739 414.703 179.193 413.666 178.102C412.575 177.065 412.029 175.783 412.029 174.255C412.029 172.727 412.547 171.445 413.584 170.408C414.675 169.317 415.985 168.772 417.513 168.772H426.925V161.651C426.979 160.178 427.525 158.95 428.561 157.968C429.598 156.932 430.853 156.386 432.326 156.331ZM484.788 167.789C486.316 167.789 487.625 168.308 488.716 169.344C489.808 170.327 490.38 171.582 490.435 173.109V181.375C490.38 183.613 490.517 185.686 490.844 187.596C491.226 189.451 492.099 191.115 493.463 192.588C494.827 194.061 496.546 194.852 498.619 194.961H520.472V173.273C520.472 171.745 521.017 170.49 522.108 169.508C523.254 168.472 524.591 167.953 526.119 167.953C529.392 168.226 531.193 169.999 531.52 173.273V199.954C531.52 204.319 530.92 208.438 529.72 212.312C528.629 215.75 526.828 218.641 524.318 220.988C521.863 223.388 518.726 224.698 514.906 224.916H486.588C485.115 224.862 483.86 224.316 482.824 223.279C481.841 222.297 481.323 221.069 481.269 219.596C481.269 218.069 481.76 216.759 482.742 215.668C483.778 214.577 485.061 214.004 486.588 213.949H512.124C514.197 213.84 515.916 213.049 517.28 211.576C518.644 210.102 519.517 208.384 519.899 206.42C519.953 206.256 519.98 206.092 519.98 205.928H495.837C492.017 205.71 488.853 204.428 486.343 202.082C483.888 199.681 482.114 196.762 481.023 193.325C479.986 189.887 479.441 186.232 479.386 182.358V173.109C479.441 171.636 479.986 170.408 481.023 169.426C482.06 168.39 483.315 167.844 484.788 167.789ZM547.889 156.331C549.362 156.386 550.617 156.932 551.654 157.968C552.691 158.95 553.236 160.178 553.291 161.651V201.754C552.963 205.028 551.163 206.801 547.889 207.074C546.361 207.074 545.025 206.583 543.879 205.601C542.787 204.564 542.242 203.282 542.242 201.754V161.651C542.296 160.123 542.869 158.869 543.961 157.886C545.052 156.85 546.361 156.331 547.889 156.331ZM558.283 179.166C559.865 176.601 562.894 174.719 567.368 173.519L588.402 167.871C589.875 167.435 591.266 167.571 592.576 168.281C593.94 168.935 594.84 169.999 595.276 171.472C595.767 172.891 595.658 174.282 594.949 175.646C594.294 176.956 593.23 177.856 591.757 178.347L569.332 184.158C567.75 184.758 566.986 185.795 567.04 187.268C566.986 188.741 567.75 189.778 569.332 190.378L591.757 196.189C593.23 196.68 594.294 197.608 594.949 198.972C595.658 200.281 595.767 201.645 595.276 203.064C594.84 204.537 593.94 205.601 592.576 206.256C591.266 206.965 589.875 207.102 588.402 206.665L567.368 201.018C562.839 199.763 559.784 197.853 558.201 195.289C556.674 192.724 555.91 190.051 555.91 187.268C555.91 184.486 556.701 181.785 558.283 179.166ZM620.893 205.928C616.092 205.765 612.463 204.646 610.008 202.573C607.553 200.445 605.78 198.072 604.688 195.453C603.597 192.779 603.051 190.078 603.051 187.35C603.051 184.513 603.57 181.785 604.606 179.166C605.698 176.492 607.471 174.119 609.926 172.045C612.436 169.917 615.601 168.826 619.42 168.772H650.521C652.048 168.772 653.331 169.29 654.367 170.327C655.459 171.309 656.004 172.509 656.004 173.928C656.004 175.401 655.459 176.656 654.367 177.693C653.331 178.675 652.048 179.166 650.521 179.166H619.911C618.711 179.166 617.647 179.575 616.719 180.393C615.846 181.212 615.192 182.276 614.755 183.585C614.373 184.895 614.182 186.177 614.182 187.432C614.182 188.796 614.373 190.133 614.755 191.442C615.192 192.752 615.846 193.816 616.719 194.634C617.647 195.398 618.711 195.807 619.911 195.862H650.521C652.048 195.862 653.331 196.353 654.367 197.335C655.459 198.317 656.004 199.49 656.004 200.854C656.004 202.273 655.459 203.473 654.367 204.455C653.331 205.437 652.048 205.928 650.521 205.928H620.893ZM655.022 187.186C655.022 188.223 654.558 189.123 653.631 189.887C652.812 190.596 651.776 190.951 650.521 190.951H623.758C622.503 190.951 621.439 190.596 620.566 189.887C619.693 189.123 619.256 188.223 619.256 187.186C619.256 186.204 619.693 185.331 620.566 184.567C621.439 183.858 622.503 183.503 623.758 183.503H650.521C651.776 183.503 652.84 183.885 653.713 184.649C654.586 185.359 655.022 186.204 655.022 187.186Z" fill="#003E9A"/>
<path d="M107.608 84.4762C113.596 74.1041 124.663 67.7147 136.64 67.7147L233.36 67.7147C245.337 67.7147 256.404 74.1041 262.392 84.4762L310.752 168.238C316.74 178.61 316.74 191.389 310.752 201.761L262.392 285.524C256.404 295.896 245.337 302.285 233.36 302.285L136.64 302.285C124.663 302.285 113.596 295.896 107.608 285.524L59.2479 201.761C53.2596 191.389 53.2595 178.61 59.2479 168.238L107.608 84.4762Z" fill="#003E9A"/>
<path fill-rule="evenodd" clip-rule="evenodd" d="M183.271 235.542C182.598 235.115 181.688 234.901 180.54 234.901C179.686 234.901 178.955 235.115 178.346 235.542H168.994C158.805 234.697 150.989 233.068 145.545 230.653C139.161 227.772 134.456 224.172 131.432 219.852C129.608 217.308 128.192 214.475 127.184 211.355C126.223 208.187 124.615 205.811 122.359 204.226L123.439 202.714C125.599 204.154 127.928 204.874 130.424 204.874C132.968 204.874 136.208 204.778 140.145 204.586C144.081 204.394 148.521 204.178 153.466 203.938C158.41 203.65 161.939 203.458 164.051 203.362C166.163 203.266 167.723 202.978 168.731 202.498C169.739 201.97 170.459 201.034 170.891 199.69L174.132 200.77C173.988 201.154 173.916 201.658 173.916 202.282C173.916 203.866 175.236 205.667 177.876 207.683C180.516 209.699 185.293 210.707 192.205 210.707C196.862 210.707 200.174 209.915 202.142 208.331C203.006 207.611 203.438 206.747 203.438 205.739C203.438 203.386 202.142 201.826 199.55 201.058C196.958 200.29 193.813 199.642 190.117 199.114C186.469 198.538 182.797 198.082 179.1 197.746C175.452 197.41 171.492 196.93 167.219 196.306C162.947 195.682 158.914 195.01 155.122 194.29C151.33 193.521 147.633 192.417 144.033 190.977C140.481 189.537 137.432 187.857 134.888 185.937C132.344 183.969 130.28 181.472 128.696 178.448C127.16 175.376 126.391 171.896 126.391 168.007C126.391 164.119 126.992 160.567 128.192 157.35C129.44 154.134 131.12 151.374 133.232 149.069C135.344 146.765 137.889 144.725 140.865 142.949C143.889 141.173 147.033 139.733 150.298 138.629C153.61 137.524 157.21 136.636 161.099 135.964C167.867 134.716 174.252 134.092 180.252 134.092C186.253 134.092 190.813 134.188 193.933 134.38C197.102 134.524 200.798 134.836 205.022 135.316C209.295 135.748 213.135 136.492 216.544 137.548C220 138.557 223.408 139.853 226.768 141.437C233.777 144.701 238.697 149.766 241.53 156.63C242.682 159.078 244.266 161.359 246.282 163.471L245.346 165.127C243.33 163.735 241.002 163.039 238.361 163.039H237.425C233.585 163.183 228.089 163.471 220.936 163.903C213.831 164.287 209.247 164.527 207.183 164.623C205.166 164.719 203.702 165.007 202.79 165.487C201.926 165.967 201.302 166.879 200.918 168.223L197.75 167.359C197.894 166.927 197.966 166.471 197.966 165.991C197.966 163.975 196.334 162.247 193.069 160.807C189.805 159.318 186.109 158.574 181.98 158.574C173.916 158.574 169.883 160.158 169.883 163.327C169.883 166.159 175.932 168.223 188.029 169.519C190.861 169.855 194.078 170.191 197.678 170.527C210.207 171.824 219.808 173.528 226.48 175.64C240.498 180.056 247.506 188.481 247.506 200.914C247.506 206.003 246.45 210.587 244.338 214.667C242.226 218.7 239.466 221.988 236.057 224.532C232.697 227.076 228.713 229.189 224.104 230.869C215.799 233.893 206.319 235.405 195.662 235.405C192.781 235.405 191.077 235.381 190.549 235.333C190.065 235.333 189.626 235.403 189.232 235.542H183.271Z" fill="white"/>
</svg>
